<svg version="1" xmlns="http://www.w3.org/2000/svg" width="513.333" height="513.333" viewBox="0 0 385.000000 385.000000"><path d="M194 13.5c-16.8 5.8-36.3 12.5-43.5 14.9-7.1 2.5-31.7 10.8-54.5 18.6-60.1 20.5-64.4 22-65.6 23.6-.9 1.2-.9 3 .2 7.6.8 3.4 1.2 6.8.9 7.5-.2.8-.1 1.2.4.9.5-.3 1.5 2.5 2.2 6.2.7 3.7 1.4 6.9 1.4 7.2.9 3.4 1.5 6.6 2.5 12 .6 3.6 1.8 9.3 2.6 12.8.8 3.4 1.2 6.7.9 7.2-.3.6-.1 1 .5 1 .7 0 1.1 1.4.9 3.2-.1 1.8.5 5.8 1.4 8.8.9 3 1.9 6.8 2.2 8.5.2 1.6.7 4.1 1 5.5.3 1.4 1 4.7 1.5 7.5 1.4 7 1.7 8.4 2.8 13.2.5 2.3.7 4.4.5 4.7-.3.3.2 3.3 1.1 6.8.9 3.5 1.8 7.2 2 8.3.2 1.1.6 2.7.9 3.5.5 1.4 1.4 6.1 2.4 12.5.2 1.6.9 4.5 1.4 6.2.6 1.8 1.1 5.5 1.2 8.2 0 2.8.4 4.8.8 4.6.3-.3.9 1 1.2 2.8.3 1.7 1.5 7.4 2.6 12.6 1.2 5.2 1.9 9.7 1.6 9.9-.3.3 0 1 .5 1.7.5.6 1.4 4.7 2 9.1 1.1 8.2 1.4 9.9 2.3 12.4.6 1.7 2.7 11.9 3.1 15.2.2 1.3.6 3 .9 3.8.3.8 1.3 5.3 2.2 10 .9 4.7 1.8 9.4 2 10.5.3 1.1 1.4 6.9 2.5 13 3.7 19.8 4.2 21.9 5.9 23.3.9.7 1 1.1.4.7-.9-.4-1.1-.1-.7.9.3.9 1 1.3 1.5 1 .5-.3.9 0 .9.6s.4.8 1 .5c.6-.3.7.1.4 1-.5 1.1-.2 1.4 1 .9 1.2-.5 1.5-.2.9 1.2-.5 1.3-.3 1.5.7.9.8-.5 1.9 0 2.9 1.3.9 1.2 2.8 2.3 4.3 2.4 1.5.1 2.4.6 2.2 1-.3.4-1.2.4-2.2.1-.9-.3-1.4-.3-1 .1.3.4 1.4.9 2.5 1.1 1 .1 1.7.8 1.5 1.6-.3 1 0 1 1.2-.1 1.5-1.1 2-.7 1.7 1.2 0 .4.7.4 1.6.1 1.1-.5 1.4-.3.8.6-.6 1-.3 1.1 1.3.2 1.5-.8 2.3-.8 2.8.1.4.7.3.8-.4.4s-1-.2-.6.7c.2.7 1.1 1.4 1.9 1.4.8 0 1.2-.4.9-.9-.3-.4-.1-.8.4-.8.6 0 1.3.7 1.6 1.6.3.8 1 1.2 1.6.9.5-.3 1-.2 1 .3s.7.9 1.5.9 1.5-.4 1.5-.9c0-.4-.5-.8-1.2-.8-.6 0-.8-.3-.4-.7.4-.5 1.3 0 2.1 1 1.1 1.5 1.3 1.6 1.9.2.3-.8 1.1-1.5 1.8-1.5.9 0 .9.3-.2 1-.8.5-1.1 1.2-.7 1.6.3.4 1.3.2 2-.4.8-.7 1.8-.8 2.3-.4.4.4.2-.2-.6-1.2-1.4-1.8-1.4-1.9.9-.6 2.2 1.1 2.3 1.1 1.7-.6-.5-1.7-.5-1.7.6-.3 1.5 1.8 3.8 1.4 3.8-.7 0-1.2 2.4-1.8 6.8-1.7 1 .1 1-.2 0-1.5-1.2-1.4-1-1.4 1.1-.3 1.7 1 2.6 1 3.5.1.8-.8.7-1-.5-.5-1 .4-2 .2-2.3-.3-.3-.5.8-.8 2.6-.6 1.7.2 4.2-.3 5.4-1.1 1.7-1.1 2.4-1.2 2.7-.2.3.6.6.1.7-1.3.1-2.1.2-2.2.9-.6.6 1.6.9 1.7 2.2.4 1.4-1.5 2.1-1.8 4-1.8.5 0 .7-.6.3-1.3-.6-.9-.4-.9.7-.1 1.9 1.4 5.4 1.2 5.4-.3 0-.6.3-1.5.8-1.9.4-.4.7-.2.7.4 0 .7.5 1.2 1.1 1.2.5 0 .7-.5.4-1-.3-.6.3-1 1.5-1s1.9-.4 1.6-.8c-.3-.5.5-.8 1.7-.8 1.5.1 2.1-.4 1.9-1.4-.3-1.2-.1-1.3.9-.3 1.7 1.7 3.2 1.7 2.3.1-.5-1-.4-1 .6-.1.9.8 1.9.9 3.2.2 1-.5 2.3-.7 2.8-.4.6.3.7-.1.4-.9-.4-1.1 0-1.6 1.1-1.6.9 0 1.4-.4 1.1-.8-.2-.4.6-.8 1.9-.8 1.4 0 2.1.4 1.7 1-.3.6.1.6.9-.1.8-.6 2.8-1.2 4.4-1.4 1.7-.2 3.7-.8 4.5-1.5.8-.6 2.5-1 3.7-.9 1.4.1 1.9-.3 1.6-1.2-.4-.9 0-1.1 1.3-.6 1.2.4 1.5.3.9-.6-.6-1-.3-1.1 1.4-.2 1.2.7 2.1.8 2 .4-.5-2.8.2-3.6 1.4-1.8 1.1 1.4 1.6 1.5 2.2.5.6-.9.4-1.1-.5-.5-.9.5-1.1.4-.6-.4.4-.7 1.3-1 1.9-.8.7.2 1.7-.2 2.4-.9s2.2-1 3.4-.7c1.2.4 2 .2 1.7-.3-.4-.5.6-1 2-1.1 1.5 0 2.8-.6 3-1.2.2-.6.8-1.1 1.3-1.1.4 0 .6.8.3 1.7-.5 1.7-.5 1.7.9.1 1.1-1.4 1.6-1.5 2.7-.5 1 .9 1.1.9.6-.1-.4-.6-.2-1.2.4-1.2.6 0 .8-.4.5-1-.3-.6.1-.7.9-.4 1 .4 1.6.1 1.6-.7 0-1.1.3-1.1 1 .1.8 1.2 1 1 1.1-1 0-1.7.3-2 .7-1 .9 2 3.3 2.4 2.5.4-.6-1.6 1.6-1.6 3 .1.5.6.7 0 .4-1.3-.4-1.7-.2-2.1.6-1.3 1.8 1.4 6.7.1 6.7-1.8 0-1.3.2-1.3.9-.2s1 1 1.4-.5c.4-1.6.5-1.7.6-.2.1 2.2 1.9 2.4 2.7.4.3-.8 1.5-1.3 2.6-1.1 1.6.3 1.8.1.8-1-.9-1.1-.7-1.2.8-.8 1.3.3 2.5-.3 3.6-1.8 1.8-2.7 2.1-1.8.5 1.4-1.2 2.1-1.1 2.1.8.5 1.1-1 2.5-1.8 3.2-1.8.7 0 .9-.5.5-1.3-.5-.7 0-.6 1.1.3 1 .8 1.6 1 1.2.4-.4-.7 0-1.5.9-1.8.8-.3 1.3-.2.9.3-.6 1.1 2.2.8 3.2-.4.4-.4.1-.5-.7-.1-.8.4-.6 0 .4-.8 2.3-1.8 3.6-2 3.6-.6 0 .5.5 1 1 1 .6 0 .9-.3.9-.8-.3-1.9.3-2.2 2.1-1.2 1.6.8 2 .8 2-.4 0-.8.5-1.8 1.2-2.2.7-.5.8-.3.3.7-.7 1.1-.5 1.1 1.1-.1 1-.8 2.2-2 2.6-2.5.5-.7.8-.6.8.1 0 .5-.6 1.6-1.2 2.3-1.1 1-1 1.1.5.6.9-.4 1.7-1.5 1.7-2.4 0-.9.3-1.2.8-.6.4.5 1.3 1.1 2.1 1.3 1.1.2 1.2 0 .3-1-.9-1.1-.3-1.3 2.8-1.2 2.2 0 3.7-.2 3.5-.6-.3-.4.3-1.4 1.2-2.1 1.2-1 1.5-1 .9-.1-1 1.7 3 1 5.4-1.1 1.3-1.1 2-1.2 2.4-.4.3.9.5.9.5 0 .1-.7.8-1 1.8-.6s1.4.2 1-.4c-.5-.7 0-.9 1.3-.6 1.9.5 2.9-1 1.3-2-.5-.2-.3-.2.4-.1.6.2 1.3-.2 1.6-.9.2-.8.5-.8 1.1.1.4.7.2 1.2-.3 1.2-.6 0-1.1.5-1.1 1.1 0 .6.5.7 1.3.2 1.2-.7 1.8-.9 5.3-1.6.8-.2 1.9-.9 2.3-1.6.5-.7 1.1-1.2 1.5-1.2 1.8.3 2 0 .6-.9-.9-.6-1.1-1-.3-1 .7 0 1-.7.6-1.7-.5-1.2-.3-1.4.7-.8 1 .6 1.1.4.4-.6-.4-.8-.9-2.3-1-3.4-.1-1.1-.5-3.6-.9-5.5s-.8-4.6-.9-6c0-1.4-.5-2.8-1.1-3.3-.6-.4-.5-1 .3-1.6 1.1-.6 1-1-.4-1.5-1.6-.6-1.6-.8-.4-1.6 1.1-.7 1.1-1 .2-1-.8 0-1.1-.9-.8-2.5.3-1.4 0-2.5-.6-2.5s-.8-1.5-.6-3.4c.2-2 0-3.2-.6-2.9-.5.3-.7-.5-.4-2 .3-1.5.1-2.8-.3-2.9-.5-.2-1-2.2-1.1-4.5-.2-2.4-.6-4.3-.9-4.3-.6 0-.9-1.8-1-5.4 0-1.1-.4-2.7-.9-3.6-.6-1.1-.5-2.1.3-3 .9-1 .9-1.1 0-.6-1.2.7-1.6-.8-1.6-6.6 0-1-.3-1.5-.8-1.2-.4.2-.7-1.1-.5-3 .1-2.1-.2-3.2-.8-2.9-.5.4-.7-.1-.3-1 .3-1 .3-1.7-.1-1.7s-.8-1.7-1-3.8c-.4-5.1-.6-6.5-1.5-7.9-.4-.6-.1-1.4.5-1.6 1-.4 1-.6.1-.6-.7-.1-1.3-1-1.3-2.1s.6-2 1.3-2c.9 0 .9-.2-.1-.9-1-.6-.9-1.1.4-2.2 1.5-1.2 1.7-1.2.9 0-.6 1-.4 1.2.4.6.7-.4 1.1-1.6.8-2.6-.3-1 0-2.2.5-2.6.6-.3.8-.1.5.4-.4.6 0 1.3.8 1.6.9.4 1.2.1.9-.7-.3-.8 0-1.7.7-2.2.8-.5 1-.3.4.7-.6 1.1-.5 1.1.5.2.7-.6 2-.9 2.9-.6 1.2.4 1.3.3.3-.5-2-1.4-1.9-1.8.8-4l2.5-2.1-3-.6c-5-1.1-7.8-3.8-7.9-7.7-.1-2.6.2-3.4 1.6-3.4 1.1 0 1.4.4.8 1.1-.7.8-.5 1.2.5 1.2.8 0 1.3-.3 1-.5-.3-.3.3-1 1.2-1.7 1.3-.9 1.3-1.4.3-2-.9-.5-1.1-.4-.6.3.4.7.3 1.2-.3 1.2-2 0-2.1-1.9-.1-2.5 2.4-.8 2.7-2.8.3-2.1-1 .3-3.4.8-5.4 1.1-3.1.6-3.7.4-4.2-1.4-.3-1.4.4-2.9 2.2-4.7 1.4-1.5 2.1-2.5 1.5-2.1-.6.3-1.1 0-1.1-.8s.4-1.2.9-.9c.4.3 1.7.2 2.9-.1 1.6-.5 1.8-.9.8-2.1-.7-.9-.8-1.4-.3-1.2.5.1 1.8-.3 2.9-.9 1.1-.5 3-.9 4.3-.8 1.6.1 2.2-.4 2.3-1.9 0-2.1.1-2.1.9-.1.5 1.1.9 1.4.9.6.1-1 .4-1.1 1.5-.2 1.6 1.4 2.3.5 2-2.7 0-1.2.3-2.2.8-2.2.6 0 .7.7.4 1.6-.3.8-.2 1.3.3.9.5-.3 1.1 0 1.3.7.3.7.7.5 1.1-.6.4-1 .3-1.5-.3-1.1-.6.3-1-.1-1-.9 0-1 .6-1.3 1.7-.9s1.4.3.9-.5c-.4-.7-.2-1.2.3-1.2.6 0 1.1-.4 1.1-.8 0-.5-2.8-.3-6.2.4-16.6 3.5-24.9 3-27.3-1.5-1.5-3-1-4.7 1-3.1.9.8 1.4.6 1.9-.6.5-1.4.9-1.4 2.4-.3 1.6 1.3 1.6 1.3.2-.5-1.4-1.8-1.3-1.9.5-1.2 1.6.6 1.7.5.8-.5-1-1-1.7-.9-3.2.5-1.4 1.3-2.1 1.4-2.7.5-.4-.7-.3-1 .3-.6s1.3 0 1.7-.8c.3-.8 1.5-1.5 2.6-1.5s2-.5 2-1.1c0-.6-1.7-.8-4.5-.5-2.7.3-4.7 0-5.1-.6-.5-.7-.2-.8.6-.3.9.5 1 .2.5-1.4-.4-1.3-.2-2.1.6-2.1.9 0 .9-.3 0-1.4-.8-1-.9-1.6-.1-2.1.6-.3.7-1.1.4-1.7-.4-.7-.2-.8.5-.4.9.6.9 1.1 0 2.2-.8 1-.8 1.4 0 1.4.6 0 1.1-.4 1.1-.9s.7-1.6 1.5-2.4c1.3-1.3 1.3-1.6-.1-2.1-1-.4-1.3-.2-.8.6.4.7.3.8-.5.4-1.5-1-.3-2.9 1.4-2.2.8.3 1.1-.2.8-1.4-.4-1.5-1-1.7-3.6-.9-1.8.5-4.8.6-6.7.2-1.9-.4-3.9-.7-4.5-.8-.5 0-1-.9-1-2s-.3-2.2-.6-2.5c-.4-.3-.9-2.2-1.2-4.3-.3-2.1-.8-4.1-1.1-4.4-.3-.3 0-1.3.7-2.1 1-1.3.9-1.4-.2-.7-1.1.6-1.3.2-.9-1.8.3-1.7.1-2.4-.5-2-.6.4-.8 0-.4-.9.3-.9 0-2.1-.6-2.8-.7-.8-.7-1-.1-.7.6.3 1.1 0 1.1-.8s-.5-1.1-1-.8c-.6.4-.8 0-.4-1 .3-.9.2-1.9-.4-2.3-.7-.4-.6-1 .1-1.9.8-1 .8-1.5 0-2-.6-.4-.9-1.3-.6-2.1.3-.8.2-1.4-.2-1.4s-.9-1.2-1.1-2.8c-.6-5.5-.8-6.7-1.5-8.3-.4-.9-.8-3.9-.9-6.7-.1-2.7-.5-4.8-.9-4.5-.7.4-1-1.5-1.1-8.4-.1-1.2-.5-1.9-1-1.6-.5.3-.6-.9-.4-2.6.3-1.7.2-3.1-.2-3.1s-.8-.6-.8-1.3c-.1-.6-.4-3-.8-5.2-.3-2.2-.7-5.2-.8-6.8 0-1.5-.3-2.7-.7-2.7-.6 0-1.2-4.2-1.4-9.2-.1-1.4-.4-2.4-.8-2.1-.5.2-.8-.5-.8-1.6 0-2.2-5.5-6.8-7.4-6.3-.6.2-1.8.5-2.6.7-.8.2-4.3 1-7.7 1.8-3.8.9-6.3 1.1-6.3.5 0-.5-1.2-.7-3-.3-1.9.4-3 .3-3-.4 0-.6-1.3-1.1-2.9-1.1-1.7 0-3.3-.5-3.6-1-.4-.6-1.1-.8-1.6-.5-.5.4-.9-.1-.9-1 0-.8-1.1-2-2.5-2.5s-2.5-1.5-2.5-2.1c0-.7-1.4-.9-3.9-.6-3.3.3-4 .1-4.5-1.6-.3-1.3-1-1.8-2-1.4-1 .4-2-.1-2.6-1.3-.6-1.1-1.6-2-2.3-1.9-.7 0-14.9 4.7-31.7 10.4zM259 334c0 .5-.5 1-1.1 1-.5 0-.7-.5-.4-1 .3-.6.8-1 1.1-1 .2 0 .4.4.4 1zm-48.9 17.3c-1 .9-1.1.8-.5-.6.3-1 .9-1.5 1.2-1.2.3.3 0 1.1-.7 1.8zm-3.9 1.9c-.7.7-1.2.8-1.2.2 0-1.4 1.2-2.6 1.9-1.9.2.3-.1 1.1-.7 1.7zm-17.5 4.3c0 .8-.6 1.6-1.4 1.9-1.1.4-1.1.1-.3-1.4 1.3-2.4 1.7-2.5 1.7-.5zm-18.3 7c.3.8.1 1.5-.4 1.5-.6 0-1-.7-1-1.5s.2-1.5.4-1.5.6.7 1 1.5zm-16.4 5.1c0 .8-1.9 1.3-2.4.6-.3-.5.1-.9.9-.9s1.5.2 1.5.3z"/><path d="M332.3 162.7c-.7.2-1.3.9-1.3 1.5 0 .7.5.7 1.3-.1.8-.6 1.8-.7 2.2-.3.5.4.5.1.1-.6-.4-.6-.8-1.2-.9-1.1-.1 0-.8.3-1.4.6zM335.7 194.7c-.4.3-.7 1.1-.7 1.7 0 .6.5.5 1.2-.2.6-.6.9-1.4.7-1.7-.3-.3-.9-.2-1.2.2zM194 357.5c-1.1 1.3-1 1.4.4.9.9-.3 1.6-1 1.6-1.5 0-1.3-.6-1.1-2 .6z"/></svg>